Coordinates
version=1
nRows=32
nColumns=22
inDegrees=yes

Units are S.I. units (second, meters, Newtons, ...)
If the header above contains a line with 'inDegrees', this indicates whether rotational values are in degrees (yes) or radians (no).

endheader
time	pelvis_tilt	pelvis_list	pelvis_rotation	pelvis_tx	pelvis_ty	pelvis_tz	hip_flexion_r	hip_adduction_r	hip_rotation_r	knee_angle_r	ankle_angle_r	subtalar_angle_r	hip_flexion_l	hip_adduction_l	hip_rotation_l	knee_angle_l	ankle_angle_l	subtalar_angle_l	lumbar_extension	lumbar_bending	lumbar_rotation
      4.54000000	      5.44847388	      6.15734896	    170.65222673	     -0.50098841	      0.86579403	     -0.38672054	     -4.12372493	      6.16991601	      6.25356151	     -7.49186606	     18.99272902	     -3.91684243	     30.99409954	    -14.58079374	     -3.25277636	    -10.66652106	      6.28893327	      5.21674593	     -3.24193025	      6.94166435	     17.19534649
      4.55000000	      5.24393420	      6.26080400	    170.39004450	     -0.50964354	      0.86426622	     -0.38584328	     -4.67699404	      6.08797126	      6.36894668	     -8.07305769	     19.69036285	     -3.93290710	     31.05242324	    -14.72958178	     -3.58727298	    -11.22795772	      6.37650434	      5.22894534	     -3.29839310	      6.92808244	     17.14154695
      4.56000000	      5.00686967	      6.32825550	    170.11063894	     -0.51837078	      0.86277924	     -0.38489827	     -5.21933565	      5.95438627	      6.49473638	     -8.73492309	     20.40839996	     -3.94236955	     31.11050604	    -14.86189749	     -4.05157711	    -12.19466098	      6.21867962	      5.12394493	     -3.38620139	      6.86226897	     17.10757588
      4.57000000	      4.77913213	      6.34145466	    169.80960620	     -0.52711240	      0.86132786	     -0.38390084	     -5.69349713	      5.75767546	      6.64714702	     -9.48844642	     21.10820522	     -3.91702705	     31.19119261	    -14.96430365	     -4.58117368	    -13.44844801	      5.71070791	      4.79202880	     -3.45822483	      6.72650992	     17.09257781
      4.58000000	      4.56327702	      6.34631696	    169.53227559	     -0.53582974	      0.85992422	     -0.38276249	     -6.09960062	      5.54875810	      6.77643098	    -10.33619293	     21.75295262	     -3.86837887	     31.32406586	    -15.05420240	     -5.04684730	    -14.93301314	      4.94070115	      4.46514690	     -3.52396544	      6.58117952	     17.03496866
      4.59000000	      4.37914462	      6.31098700	    169.26445358	     -0.54449972	      0.85860411	     -0.38148960	     -6.41124584	      5.29266880	      6.89469920	    -11.27023514	     22.33176356	     -3.77271014	     31.51205924	    -15.10483116	     -5.45689443	    -16.53817015	      3.87890179	      4.19714998	     -3.55869446	      6.39315985	     16.97885349
      4.60000000	      4.19233723	      6.24498502	    169.01367231	     -0.55309037	      0.85747056	     -0.38009249	     -6.65543617	      4.99694967	      7.00723362	    -12.30500336	     22.83125159	     -3.68417346	     31.70613425	    -15.11336226	     -5.78704169	    -18.17185036	      2.59763087	      4.11020351	     -3.60671573	      6.16278424	     16.92072980
      4.61000000	      4.07916805	      6.09507604	    168.79179237	     -0.56162926	      0.85643142	     -0.37851404	     -6.74499526	      4.61634568	      7.14076147	    -13.43203401	     23.21626139	     -3.46159272	     32.01189502	    -15.02767636	     -6.07863071	    -19.83164139	      1.27639082	      4.08463705	     -3.56274519	      5.85764949	     16.77611671
      4.62000000	      3.96502615	      5.92024656	    168.61635323	     -0.57010628	      0.85563570	     -0.37675864	     -6.76640524	      4.20141912	      7.24871424	    -14.65080545	     23.47389647	     -3.12998671	     32.33123361	    -14.88023100	     -6.25922742	    -21.48196803	      0.07143855	      4.14027469	     -3.52938309	      5.52246386	     16.61513649
      4.63000000	      3.83851328	      5.74190089	    168.49657518	     -0.57853546	      0.85512824	     -0.37484817	     -6.73701991	      3.77594109	      7.33826204	    -15.95834455	     23.56310787	     -2.55377461	     32.63944708	    -14.68340784	     -6.33400900	    -23.11922290	     -0.86607921	      4.20922044	     -3.52166285	      5.17665920	     16.42072705
      4.64000000	      3.67151848	      5.51994002	    168.42643347	     -0.58697043	      0.85497956	     -0.37281669	     -6.67878373	      3.29547378	      7.42803249	    -17.35790810	     23.47488635	     -1.98459873	     32.85877863	    -14.39762269	     -6.39062526	    -24.69077683	     -1.43279760	      4.20659527	     -3.55472078	      4.76990986	     16.17189867
      4.65000000	      3.46042155	      5.30200681	    168.40682531	     -0.59536990	      0.85521350	     -0.37069947	     -6.58273744	      2.81458555	      7.49847240	    -18.88127216	     23.19023579	     -1.25921436	     32.96308945	    -14.06558196	     -6.41369016	    -26.16954927	     -1.60066410	      4.11887928	     -3.64781247	      4.35200911	     15.88986065
      4.66000000	      3.21705610	      5.09173039	    168.43082313	     -0.60372372	      0.85583433	     -0.36855185	     -6.42712727	      2.34449857	      7.55202570	    -20.54036865	     22.68934333	     -0.42022378	     32.93200309	    -13.70016654	     -6.44286573	    -27.50206029	     -1.42781546	      3.98013397	     -3.78497592	      3.92606071	     15.58512115
      4.67000000	      2.95210738	      4.91772929	    168.48494939	     -0.61199231	      0.85683387	     -0.36640654	     -6.18816674	      1.91922521	      7.59916254	    -22.35585283	     21.94839498	      0.65612942	     32.74615762	    -13.33644709	     -6.47553417	    -28.63765107	     -0.96726728	      3.80253281	     -3.96272660	      3.52902710	     15.27021742
      4.68000000	      2.68590557	      4.80277385	    168.56830754	     -0.62016159	      0.85817846	     -0.36429232	     -5.85404448	      1.57035178	      7.64952361	    -24.30530750	     20.90814115	      1.98588525	     32.41549747	    -13.00710852	     -6.52642365	    -29.54920827	     -0.29870885	      3.61692229	     -4.15967634	      3.18983814	     14.93934167
      4.69000000	      2.46086221	      4.71608308	    168.64218858	     -0.62813106	      0.85976069	     -0.36225099	     -5.31220090	      1.27388523	      7.70351501	    -26.48409700	     19.61987584	      3.45729795	     31.97366444	    -12.70889151	     -6.63015281	    -30.20376283	      0.42575255	      3.46351353	     -4.32946470	      2.88324985	     14.64250837
      4.70000000	      2.29738729	      4.67084301	    168.69456923	     -0.63589547	      0.86149998	     -0.36030472	     -4.55174129	      1.04506902	      7.77116437	    -28.86101216	     18.05102672	      5.07598996	     31.45723634	    -12.47088834	     -6.80312689	    -30.62550798	      1.17632410	      3.34196982	     -4.44849258	      2.63194183	     14.37537548
      4.71000000	      2.20750190	      4.66614501	    168.70618851	     -0.64343147	      0.86332648	     -0.35848279	     -3.55864268	      0.88479251	      7.87084164	    -31.42182637	     16.20886501	      6.80232619	     30.88684434	    -12.30076021	     -7.03545202	    -30.82505542	      1.92863146	      3.25234710	     -4.50321898	      2.43739668	     14.15588167
      4.72000000	      2.19865370	      4.69361912	    168.66633754	     -0.65072656	      0.86516217	     -0.35681125	     -2.32387494	      0.78264077	      7.98569178	    -34.14977976	     14.13082203	      8.56495202	     30.29749236	    -12.20095432	     -7.33696225	    -30.84365390	      2.64404680	      3.19647118	     -4.48274438	      2.29261719	     13.98509995
      4.73000000	      2.25633190	      4.73258128	    168.57178329	     -0.65775837	      0.86695352	     -0.35529819	     -0.86757907	      0.71443016	      8.11664831	    -37.01858461	     11.87581475	     10.29858282	     29.71186760	    -12.15005054	     -7.69578922	    -30.74108098	      3.30503571	      3.17265452	     -4.40258429	      2.17130896	     13.86479069
      4.74000000	      2.36554916	      4.77969236	    168.42814242	     -0.66454271	      0.86869446	     -0.35395153	      0.77390405	      0.66816275	      8.23277789	    -39.97870135	      9.52091980	     11.94559521	     29.11333699	    -12.13529426	     -8.08951944	    -30.50438332	      3.88049418	      3.17581549	     -4.27541171	      2.07103989	     13.78062598
      4.75000000	      2.50793261	      4.80112340	    168.24102168	     -0.67106649	      0.87030856	     -0.35277309	      2.58551539	      0.59795709	      8.30426601	    -43.02413093	      7.20145410	     13.31620761	     28.53306379	    -12.12898051	     -8.54872543	    -30.21962075	      4.41646687	      3.20940382	     -4.11833245	      1.94833869	     13.71944622
      4.76000000	      2.65116878	      4.78589796	    168.02830499	     -0.67733672	      0.87181819	     -0.35173574	      4.51001679	      0.48117235	      8.32309824	    -46.10378369	      5.00035214	     14.31533838	     27.94553150	    -12.10102394	     -9.04354124	    -29.88888199	      4.89919821	      3.26706724	     -3.96584117	      1.78643506	     13.66905881
      4.77000000	      2.76793300	      4.72504496	    167.80929048	     -0.68336619	      0.87323651	     -0.35080318	      6.49546597	      0.29780259	      8.28656089	    -49.17010929	      2.99716394	     14.85291988	     27.33369117	    -12.02597359	     -9.55450731	    -29.52331280	      5.33582540	      3.34370891	     -3.84711967	      1.57035302	     13.61484843
      4.78000000	      2.82225738	      4.61662270	    167.59267466	     -0.68917747	      0.87461153	     -0.34995630	      8.47492045	      0.03642987	      8.21383135	    -52.17028589	      1.25642017	     14.95645788	     26.66350280	    -11.89111829	    -10.08539880	    -29.12902362	      5.73420301	      3.43011806	     -3.80179682	      1.28951819	     13.55552941
      4.79000000	      2.84047240	      4.48056837	    167.41473171	     -0.69478553	      0.87590581	     -0.34913533	     10.44088104	     -0.28126584	      8.08394723	    -55.05226339	     -0.18111198	     14.72225918	     25.98085714	    -11.69732742	    -10.55953561	    -28.71940529	      6.10111498	      3.52665479	     -3.80081389	      0.97338442	     13.45408941
      4.80000000	      2.77986941	      4.34166405	    167.27433673	     -0.70021612	      0.87722809	     -0.34833480	     12.30875480	     -0.64107861	      7.90747791	    -57.75870652	     -1.29218853	     14.05097944	     25.22782947	    -11.46258848	    -10.98693953	    -28.28090930	      6.40790105	      3.61873522	     -3.89962363	      0.63783778	     13.33257049
      4.81000000	      2.64409525	      4.18446933	    167.16962390	     -0.70552917	      0.87856975	     -0.34754322	     14.05568478	     -1.05887542	      7.71855440	    -60.25663596	     -1.97294383	     13.41153523	     24.40304157	    -11.16984517	    -11.38067186	    -27.81237693	      6.73301965	      3.69614001	     -4.08004595	      0.26700231	     13.17428780
      4.82000000	      2.44305249	      4.06752970	    167.11968980	     -0.71072865	      0.87999018	     -0.34672976	     15.65094961	     -1.47590491	      7.47941757	    -62.49495248	     -2.31921212	     12.67380710	     23.51910598	    -10.87138424	    -11.69432889	    -27.31749937	      6.99668154	      3.74845649	     -4.34593796	     -0.07046132	     12.98164403
      4.83000000	      2.20024368	      3.98676515	    167.12483996	     -0.71584924	      0.88146596	     -0.34588096	     17.10147565	     -1.89557861	      7.19332407	    -64.45755024	     -2.32672046	     12.05846349	     22.59687431	    -10.56805278	    -11.92819051	    -26.79372212	      7.23683694	      3.77670324	     -4.66334119	     -0.37133577	     12.75387534
      4.84000000	      1.93047848	      3.95297997	    167.19565000	     -0.72090524	      0.88299275	     -0.34497294	     18.40839773	     -2.30816980	      6.84299700	    -66.13083496	     -2.10053000	     11.57114886	     21.66089716	    -10.27659464	    -12.08286513	    -26.25995928	      7.45548359	      3.78352437	     -5.01660949	     -0.61658978	     12.47134739
      4.85000000	      1.66083260	      3.96843692	    167.33670244	     -0.72591537	      0.88455728	     -0.34399736	     19.58512581	     -2.70129078	      6.42911991	    -67.50146683	     -1.71404064	     11.22268568	     20.72772446	    -10.00114369	    -12.12996874	    -25.69370200	      7.65005317	      3.78059793	     -5.37121590	     -0.79412642	     12.13971194
